<?xml version="1.0" standalone="no"?>
<!DOCTYPE svg PUBLIC "-//W3C//DTD SVG 20010904//EN"
 "http://www.w3.org/TR/2001/REC-SVG-20010904/DTD/svg10.dtd">
<svg version="1.0" xmlns="http://www.w3.org/2000/svg"
 width="700.000000pt" height="700.000000pt" viewBox="0 0 700.000000 700.000000"
 preserveAspectRatio="xMidYMid meet">
<metadata>
Created by potrace 1.14, written by Peter Selinger 2001-2017
</metadata>
<g transform="translate(0.000000,700.000000) scale(0.100000,-0.100000)"
fill="#000000" stroke="none">
<path d="M1840 6361 c-60 -18 -111 -56 -159 -116 l-21 -28 -42 19 c-67 30
-160 25 -227 -11 -101 -55 -158 -157 -160 -283 -1 -42 -2 -43 -28 -38 -141 29
-247 -11 -317 -120 -54 -85 -53 -70 -51 -895 2 -420 5 -777 9 -794 3 -16 11
-59 17 -95 21 -117 87 -280 151 -372 17 -25 18 -57 18 -560 l-1 -533 -39 -40
c-65 -64 -91 -168 -67 -262 l8 -31 -57 -12 c-102 -21 -175 -76 -219 -163 -20
-41 -24 -62 -22 -121 2 -41 10 -86 20 -106 17 -35 72 -97 110 -123 18 -13 18
-15 2 -53 -11 -25 -18 -65 -18 -110 0 -59 5 -79 29 -124 35 -64 91 -111 167
-139 31 -11 61 -20 65 -20 4 1 26 1 50 0 l43 -1 -8 -37 c-35 -168 58 -311 227
-351 47 -11 1530 -10 1580 1 14 3 42 8 63 11 138 21 300 84 409 158 24 17 60
18 560 18 l533 0 34 -35 c66 -68 169 -96 267 -72 l31 8 12 -59 c19 -98 78
-174 168 -217 63 -31 167 -30 230 3 43 23 109 86 118 113 5 15 9 15 46 -3 96
-46 225 -22 305 57 54 54 84 122 91 208 l6 68 31 -8 c55 -13 152 -6 193 16 57
30 108 84 139 148 l29 58 0 745 c-1 410 -4 777 -7 816 -18 176 -65 324 -149
461 l-39 65 0 532 0 533 34 30 c66 60 98 174 74 260 -11 40 -11 40 22 46 117
22 185 67 238 157 23 39 27 56 27 125 0 105 -30 163 -119 233 l-29 22 19 42
c29 65 24 162 -12 228 -53 97 -162 160 -277 160 -49 0 -49 0 -42 28 33 125
-13 246 -122 316 -84 54 -80 54 -894 51 -415 -2 -772 -6 -794 -9 -112 -18
-143 -25 -215 -48 -86 -27 -160 -61 -226 -103 l-54 -35 -533 0 -532 0 -35 36
c-63 66 -171 94 -267 71 l-31 -8 -12 58 c-29 144 -145 245 -279 242 -25 0 -57
-4 -71 -8z m154 -154 c13 -9 33 -36 45 -61 22 -44 22 -54 22 -503 l1 -459 43
1 c24 0 46 3 50 6 3 4 6 146 6 317 1 299 1 313 22 354 57 112 188 116 251 8
20 -34 21 -50 23 -635 2 -330 3 -617 3 -637 l0 -38 150 0 150 0 7 -27 c10 -35
10 -309 1 -384 -13 -104 -65 -216 -124 -270 -16 -15 -108 -72 -205 -128 -134
-77 -178 -107 -180 -124 -2 -12 -4 -239 -3 -504 l1 -483 -26 -1 c-133 -4
-1053 0 -1058 5 -4 3 -6 230 -6 504 l0 497 -39 59 c-47 69 -89 158 -113 239
-40 137 -43 207 -44 967 l-2 735 23 45 c32 62 80 93 137 87 55 -6 91 -32 117
-87 20 -41 21 -58 20 -272 -1 -196 1 -228 14 -230 38 -3 66 -4 77 0 8 2 11
108 11 400 0 434 1 442 58 495 70 65 170 40 220 -53 17 -32 18 -66 18 -437 1
-222 3 -404 6 -404 18 -4 90 -4 91 1 1 3 2 212 3 465 2 401 4 464 18 490 46
85 136 111 212 62z m3696 -199 c114 -58 119 -188 9 -253 -31 -18 -54 -20 -254
-22 -121 -1 -229 -2 -241 -3 -18 0 -20 -6 -19 -47 l1 -48 402 -2 c388 -1 404
-2 446 -23 52 -25 76 -58 84 -112 8 -60 -23 -110 -88 -144 -32 -16 -70 -18
-435 -20 -220 -1 -403 -2 -406 -3 -3 0 -5 -22 -4 -48 l1 -48 464 0 c518 -1
501 1 556 -70 52 -69 26 -162 -59 -204 l-47 -23 -455 1 c-350 0 -455 -2 -456
-12 -1 -7 -2 -29 -3 -49 l-2 -38 296 -1 c345 0 349 -1 392 -26 103 -60 102
-187 -2 -247 -36 -22 -141 -24 -1177 -26 l-133 0 0 -149 0 -150 -42 -9 c-45
-10 -327 -8 -388 3 -87 15 -178 57 -234 105 -20 18 -79 108 -141 215 -59 102
-112 185 -118 186 -7 0 -234 1 -504 1 -445 1 -493 2 -494 17 0 9 -1 252 -1
539 -1 362 2 526 9 530 6 4 233 7 505 6 l493 -1 45 31 c111 77 221 120 369
145 96 17 177 19 846 20 l740 1 45 -22z m-2039 -1547 c46 -80 86 -149 88 -155
8 -21 80 -86 132 -119 60 -39 185 -81 269 -92 133 -18 336 -13 440 10 l26 6 0
-340 0 -340 -40 -22 c-168 -92 -287 -169 -324 -208 -50 -53 -115 -181 -132
-261 -30 -140 -33 -411 -5 -520 l6 -26 -340 0 -340 0 -19 36 c-10 19 -49 86
-86 149 -36 62 -66 116 -66 118 0 3 -22 27 -49 52 -84 80 -216 139 -354 157
-127 16 -352 11 -437 -11 l-26 -6 1 342 c0 295 2 343 15 348 63 25 302 173
339 211 76 76 139 217 156 351 17 128 12 354 -10 439 l-6 26 339 0 339 0 84
-145z m2178 -109 c3 -5 6 -232 5 -504 l-1 -493 40 -59 c67 -100 118 -231 143
-371 4 -22 9 -384 11 -805 l4 -765 -23 -45 c-32 -62 -80 -93 -137 -87 -55 6
-89 32 -117 87 -21 41 -22 58 -22 254 -1 116 -1 220 -1 232 -1 19 -7 21 -48
19 l-48 -1 -1 -403 c-2 -401 -2 -402 -25 -448 -31 -60 -78 -86 -138 -79 -58 8
-86 27 -113 79 -21 41 -22 52 -24 442 -1 220 -2 403 -3 406 -2 10 -91 4 -92
-6 -1 -5 -2 -215 -3 -465 -2 -396 -4 -459 -18 -485 -58 -108 -187 -118 -250
-18 l-23 38 -5 470 -5 470 -47 0 -48 0 0 -60 c-1 -33 -1 -176 -1 -317 0 -244
-2 -259 -22 -300 -57 -112 -188 -116 -251 -8 -21 34 -21 49 -23 670 l-2 635
-149 3 c-131 2 -151 5 -158 20 -13 30 -13 322 1 400 33 193 82 252 320 387 94
53 174 101 179 105 5 5 9 230 9 509 l0 500 21 3 c12 2 254 3 540 2 349 -1 520
-5 525 -12z m-2920 -1597 c84 -22 168 -65 207 -107 17 -18 77 -113 134 -210
65 -114 108 -178 118 -179 10 0 236 -1 505 -1 441 -1 487 -2 488 -17 4 -93 1
-1063 -4 -1068 -4 -3 -234 -7 -511 -7 -502 -1 -505 -1 -528 -23 -36 -33 -145
-89 -229 -117 -77 -26 -88 -28 -209 -45 -36 -5 -393 -10 -795 -10 l-730 -1
-44 22 c-56 29 -82 64 -88 119 -6 53 22 101 77 133 32 19 53 21 264 23 125 1
234 4 241 7 11 4 14 45 6 88 0 3 -180 6 -398 6 -335 0 -404 2 -433 15 -128 56
-134 204 -10 261 44 21 59 21 443 21 261 0 397 3 398 10 4 31 5 71 2 80 -2 7
-162 10 -460 10 -399 0 -461 2 -493 16 -112 50 -125 187 -23 251 l38 23 470 5
470 5 0 45 0 45 -325 5 c-305 5 -327 6 -360 26 -108 63 -104 194 8 251 43 21
48 21 610 22 312 0 595 1 630 1 l62 0 0 149 0 150 43 10 c66 15 351 6 426 -14z"/>
<path d="M3477 3877 c-10 -34 -34 -113 -53 -174 l-35 -113 -167 -2 -167 -3
133 -93 c74 -53 132 -101 132 -110 0 -8 -16 -68 -36 -131 -20 -64 -42 -135
-49 -159 l-13 -42 51 37 c51 37 78 58 101 78 6 6 37 29 69 53 l57 43 38 -28
c20 -15 39 -30 42 -33 3 -3 34 -27 70 -53 64 -47 79 -59 112 -85 20 -16 24
-34 -45 185 l-44 142 94 68 c51 38 113 82 136 98 l41 30 -166 3 -167 2 -32
103 c-17 56 -39 129 -50 161 -10 33 -19 65 -19 73 0 32 -17 8 -33 -50z"/>
</g>
</svg>
