<svg width="68" height="68" viewBox="0 0 68 68" fill="none" xmlns="http://www.w3.org/2000/svg">
<path d="M35.4554 32.8022L34 28.0107L32.5446 32.8022H28.0107L31.7121 35.4435L30.3046 39.9894L34 37.1804L37.7014 39.9894L36.2939 35.4435L39.9893 32.8022H35.4554Z" fill="white"/>
<mask id="path-2-outside-1_202_4" maskUnits="userSpaceOnUse" x="0" y="0" width="68" height="68" fill="black">
<rect fill="white" width="68" height="68"/>
<path d="M58.6977 4.3957H44.5134C41.5924 4.3957 38.6667 4.3957 35.7154 6.69473L23.9037 6.69473V19.4545H35.7112L38.2282 23.8095C38.2282 23.8095 39.3048 25.2145 41.8824 25.47C44.0963 25.6894 46.4135 25.5628 46.4135 25.2145C46.4135 24.8662 46.4135 23.8095 46.4135 23.8095C46.4003 23.7631 46.4135 21.8126 46.4135 21.8126H60.6892C61.7912 21.8126 62.6808 21.0346 62.6808 20.0709C62.6808 19.1071 61.7912 18.3292 60.6892 18.3292H53.7219V17.1681H64.0085C65.1104 17.1681 66 16.3901 66 15.4264C66 14.4626 65.1104 13.6847 64.0085 13.6847H53.7219V12.5236H62.6808C63.7827 12.5236 64.6723 11.7456 64.6723 10.7819C64.6723 9.81815 63.7827 9.04021 62.6808 9.04021H53.7219V7.87908H58.6977C59.7997 7.87908 60.6892 7.10112 60.6892 6.13739C60.6892 5.17365 59.7997 4.3957 58.6977 4.3957Z"/>
<path d="M9.30229 63.6042L23.4866 63.6043C26.4075 63.6043 29.3333 63.6042 32.2846 61.3052H44.0962V48.5454H32.2888L29.7718 44.1904C29.7718 44.1904 28.6952 42.7855 26.1176 42.53C23.9037 42.3106 21.5865 42.4371 21.5865 42.7855C21.5865 43.1338 21.5865 44.1904 21.5865 44.1904C21.5997 44.2369 21.5865 46.1874 21.5865 46.1874H7.31075C6.20877 46.1874 5.31922 46.9653 5.31922 47.9291C5.31922 48.8928 6.20877 49.6708 7.31075 49.6708H14.2781V50.8319H3.99153C2.88955 50.8319 2 51.6098 2 52.5736C2 53.5373 2.88955 54.3153 3.99153 54.3153H14.2781V55.4764L5.31922 55.4764C4.21724 55.4764 3.32769 56.2543 3.32769 57.2181C3.32769 58.1818 4.21724 58.9597 5.31922 58.9597H14.2781L14.2781 60.1209H9.30229C8.2003 60.1209 7.31075 60.8988 7.31075 61.8626C7.31075 62.8263 8.2003 63.6042 9.30229 63.6042Z"/>
<path d="M4.39572 9.30229L4.39572 23.4866C4.39572 26.4075 4.39573 29.3333 6.69475 32.2846L6.69476 44.0962H19.4545V32.2888L23.8096 29.7718C23.8096 29.7718 25.2145 28.6952 25.47 26.1176C25.6894 23.9037 25.5629 21.5864 25.2145 21.5864C24.8662 21.5864 23.8096 21.5864 23.8096 21.5864C23.7631 21.5997 21.8126 21.5865 21.8126 21.5865L21.8126 7.31075C21.8126 6.20877 21.0346 5.31922 20.0709 5.31922C19.1072 5.31922 18.3292 6.20877 18.3292 7.31075L18.3292 14.2781H17.1681V3.99153C17.1681 2.88955 16.3901 2 15.4264 2C14.4627 2 13.6847 2.88955 13.6847 3.99153L13.6847 14.2781H12.5236L12.5236 5.31922C12.5236 4.21724 11.7456 3.32769 10.7819 3.32769C9.81817 3.32769 9.04023 4.21724 9.04023 5.31922L9.04023 14.2781L7.8791 14.2781L7.8791 9.30229C7.8791 8.20031 7.10114 7.31075 6.13741 7.31075C5.17368 7.31075 4.39572 8.20031 4.39572 9.30229Z"/>
<path d="M63.6043 58.6977V44.5134C63.6043 41.5924 63.6043 38.6667 61.3053 35.7154V23.9037H48.5455V35.7112L44.1904 38.2282C44.1904 38.2282 42.7855 39.3048 42.53 41.8823C42.3106 44.0962 42.4371 46.4135 42.7855 46.4135C43.1338 46.4135 44.1904 46.4135 44.1904 46.4135C44.2369 46.4003 46.1874 46.4135 46.1874 46.4135V60.6892C46.1874 61.7912 46.9654 62.6808 47.9291 62.6808C48.8928 62.6808 49.6708 61.7912 49.6708 60.6892V53.7219H50.8319V64.0085C50.8319 65.1104 51.6099 66 52.5736 66C53.5373 66 54.3153 65.1104 54.3153 64.0085V53.7219H55.4764V62.6808C55.4764 63.7827 56.2544 64.6723 57.2181 64.6723C58.1818 64.6723 58.9598 63.7827 58.9598 62.6808V53.7219H60.1209V58.6977C60.1209 59.7997 60.8989 60.6892 61.8626 60.6892C62.8263 60.6892 63.6043 59.7997 63.6043 58.6977Z"/>
</mask>
<path d="M58.6977 4.3957H44.5134C41.5924 4.3957 38.6667 4.3957 35.7154 6.69473L23.9037 6.69473V19.4545H35.7112L38.2282 23.8095C38.2282 23.8095 39.3048 25.2145 41.8824 25.47C44.0963 25.6894 46.4135 25.5628 46.4135 25.2145C46.4135 24.8662 46.4135 23.8095 46.4135 23.8095C46.4003 23.7631 46.4135 21.8126 46.4135 21.8126H60.6892C61.7912 21.8126 62.6808 21.0346 62.6808 20.0709C62.6808 19.1071 61.7912 18.3292 60.6892 18.3292H53.7219V17.1681H64.0085C65.1104 17.1681 66 16.3901 66 15.4264C66 14.4626 65.1104 13.6847 64.0085 13.6847H53.7219V12.5236H62.6808C63.7827 12.5236 64.6723 11.7456 64.6723 10.7819C64.6723 9.81815 63.7827 9.04021 62.6808 9.04021H53.7219V7.87908H58.6977C59.7997 7.87908 60.6892 7.10112 60.6892 6.13739C60.6892 5.17365 59.7997 4.3957 58.6977 4.3957Z" stroke="white" stroke-width="4" mask="url(#path-2-outside-1_202_4)"/>
<path d="M9.30229 63.6042L23.4866 63.6043C26.4075 63.6043 29.3333 63.6042 32.2846 61.3052H44.0962V48.5454H32.2888L29.7718 44.1904C29.7718 44.1904 28.6952 42.7855 26.1176 42.53C23.9037 42.3106 21.5865 42.4371 21.5865 42.7855C21.5865 43.1338 21.5865 44.1904 21.5865 44.1904C21.5997 44.2369 21.5865 46.1874 21.5865 46.1874H7.31075C6.20877 46.1874 5.31922 46.9653 5.31922 47.9291C5.31922 48.8928 6.20877 49.6708 7.31075 49.6708H14.2781V50.8319H3.99153C2.88955 50.8319 2 51.6098 2 52.5736C2 53.5373 2.88955 54.3153 3.99153 54.3153H14.2781V55.4764L5.31922 55.4764C4.21724 55.4764 3.32769 56.2543 3.32769 57.2181C3.32769 58.1818 4.21724 58.9597 5.31922 58.9597H14.2781L14.2781 60.1209H9.30229C8.2003 60.1209 7.31075 60.8988 7.31075 61.8626C7.31075 62.8263 8.2003 63.6042 9.30229 63.6042Z" stroke="white" stroke-width="4" mask="url(#path-2-outside-1_202_4)"/>
<path d="M4.39572 9.30229L4.39572 23.4866C4.39572 26.4075 4.39573 29.3333 6.69475 32.2846L6.69476 44.0962H19.4545V32.2888L23.8096 29.7718C23.8096 29.7718 25.2145 28.6952 25.47 26.1176C25.6894 23.9037 25.5629 21.5864 25.2145 21.5864C24.8662 21.5864 23.8096 21.5864 23.8096 21.5864C23.7631 21.5997 21.8126 21.5865 21.8126 21.5865L21.8126 7.31075C21.8126 6.20877 21.0346 5.31922 20.0709 5.31922C19.1072 5.31922 18.3292 6.20877 18.3292 7.31075L18.3292 14.2781H17.1681V3.99153C17.1681 2.88955 16.3901 2 15.4264 2C14.4627 2 13.6847 2.88955 13.6847 3.99153L13.6847 14.2781H12.5236L12.5236 5.31922C12.5236 4.21724 11.7456 3.32769 10.7819 3.32769C9.81817 3.32769 9.04023 4.21724 9.04023 5.31922L9.04023 14.2781L7.8791 14.2781L7.8791 9.30229C7.8791 8.20031 7.10114 7.31075 6.13741 7.31075C5.17368 7.31075 4.39572 8.20031 4.39572 9.30229Z" stroke="white" stroke-width="4" mask="url(#path-2-outside-1_202_4)"/>
<path d="M63.6043 58.6977V44.5134C63.6043 41.5924 63.6043 38.6667 61.3053 35.7154V23.9037H48.5455V35.7112L44.1904 38.2282C44.1904 38.2282 42.7855 39.3048 42.53 41.8823C42.3106 44.0962 42.4371 46.4135 42.7855 46.4135C43.1338 46.4135 44.1904 46.4135 44.1904 46.4135C44.2369 46.4003 46.1874 46.4135 46.1874 46.4135V60.6892C46.1874 61.7912 46.9654 62.6808 47.9291 62.6808C48.8928 62.6808 49.6708 61.7912 49.6708 60.6892V53.7219H50.8319V64.0085C50.8319 65.1104 51.6099 66 52.5736 66C53.5373 66 54.3153 65.1104 54.3153 64.0085V53.7219H55.4764V62.6808C55.4764 63.7827 56.2544 64.6723 57.2181 64.6723C58.1818 64.6723 58.9598 63.7827 58.9598 62.6808V53.7219H60.1209V58.6977C60.1209 59.7997 60.8989 60.6892 61.8626 60.6892C62.8263 60.6892 63.6043 59.7997 63.6043 58.6977Z" stroke="white" stroke-width="4" mask="url(#path-2-outside-1_202_4)"/>
</svg>
