<svg width="250" height="210" viewBox="0 0 250 210" fill="none" xmlns="http://www.w3.org/2000/svg">
<path d="M199.088 48.0143L184.537 0L169.986 48.0143H124.657L161.663 74.4821L147.591 120.036L184.537 91.8873L221.543 120.036L207.471 74.4821L244.417 48.0143H199.088Z" fill="white"/>
<path d="M45.7052 198.09V209.062H9.44961V198.09H45.7052ZM14.0342 140.792V209.062H-0.000244141V140.792H14.0342ZM40.9803 168.597V179.288H9.44961V168.597H40.9803ZM45.6584 140.792V151.811H9.44961V140.792H45.6584Z" fill="white"/>
<path d="M93.3755 186.415H107.363C107.082 191.01 105.819 195.089 103.574 198.653C101.36 202.216 98.2564 204.999 94.2644 206.999C90.3035 209 85.5318 210 79.9492 210C75.583 210 71.6689 209.25 68.2071 207.749C64.7453 206.218 61.7824 204.029 59.3186 201.185C56.886 198.34 55.0303 194.902 53.7516 190.869C52.4729 186.837 51.8336 182.32 51.8336 177.318V172.583C51.8336 167.581 52.4885 163.064 53.7984 159.032C55.1395 154.968 57.0419 151.514 59.5057 148.669C62.0008 145.825 64.9792 143.637 68.441 142.105C71.9028 140.573 75.7701 139.807 80.0428 139.807C85.7189 139.807 90.5062 140.839 94.4047 142.902C98.3343 144.965 101.375 147.81 103.527 151.436C105.71 155.062 107.02 159.188 107.457 163.814H93.4223C93.2663 161.064 92.7206 158.735 91.7849 156.828C90.8493 154.89 89.4303 153.436 87.5278 152.467C85.6566 151.467 83.1616 150.967 80.0428 150.967C77.7037 150.967 75.6609 151.404 73.9144 152.28C72.1679 153.155 70.7021 154.483 69.517 156.265C68.3318 158.047 67.443 160.298 66.8504 163.017C66.2891 165.706 66.0084 168.863 66.0084 172.489V177.318C66.0084 180.851 66.2735 183.961 66.8036 186.649C67.3338 189.306 68.1447 191.557 69.2363 193.401C70.359 195.214 71.7937 196.59 73.5402 197.528C75.3179 198.434 77.4542 198.887 79.9492 198.887C82.8809 198.887 85.2979 198.418 87.2004 197.481C89.1028 196.543 90.553 195.152 91.551 193.308C92.5802 191.463 93.1884 189.166 93.3755 186.415Z" fill="white"/>
<path d="M145.63 140.792V209.062H131.643V140.792H145.63ZM166.588 140.792V151.811H111.012V140.792H166.588Z" fill="white"/>
<path d="M184.412 165.69H200.318C205.682 165.69 210.298 166.581 214.165 168.363C218.032 170.144 221.011 172.645 223.1 175.865C225.19 179.085 226.235 182.836 226.235 187.118C226.235 190.369 225.642 193.339 224.457 196.027C223.272 198.684 221.541 200.997 219.264 202.967C217.019 204.905 214.306 206.405 211.124 207.468C207.943 208.531 204.341 209.062 200.318 209.062H175.243V140.792H189.324V198.09H200.318C203 198.09 205.214 197.59 206.961 196.59C208.707 195.589 210.017 194.261 210.89 192.604C211.795 190.916 212.247 189.056 212.247 187.024C212.247 185.086 211.795 183.336 210.89 181.773C210.017 180.179 208.707 178.928 206.961 178.022C205.214 177.115 203 176.662 200.318 176.662H184.412V165.69Z" fill="white"/>
<path d="M249.579 140.792L248.035 188.197H236.807L235.217 140.792H249.579ZM234.843 202.873C234.843 200.872 235.529 199.216 236.901 197.903C238.304 196.559 240.144 195.886 242.421 195.886C244.729 195.886 246.569 196.559 247.941 197.903C249.314 199.216 250 200.872 250 202.873C250 204.811 249.314 206.452 247.941 207.796C246.569 209.14 244.729 209.812 242.421 209.812C240.144 209.812 238.304 209.14 236.901 207.796C235.529 206.452 234.843 204.811 234.843 202.873Z" fill="white"/>
<path d="M71.973 81.2791H43.027L35.6443 78.202C27.3113 75.5645 20.9276 71.6082 16.4931 66.3332C12.1074 61.0582 9.9145 54.3423 9.9145 46.1856C9.9145 39.0057 11.4982 32.9981 14.6657 28.1627C17.882 23.2784 22.4139 19.5908 28.2616 17.0998C34.158 14.6088 41.1509 13.3633 49.2401 13.3633H86.3729V120.036H64.371V30.5804H49.2401C43.2463 30.5804 38.8361 32.0701 36.0098 35.0495C33.1834 38.0289 31.7702 42.2538 31.7702 47.7242C31.7702 51.7292 32.4281 55.0261 33.7438 57.6148C35.0595 60.1546 36.9844 62.0595 39.5184 63.3294C42.0524 64.5504 45.2442 65.161 49.094 65.161H71.8999L71.973 81.2791ZM50.8483 72.4141L27.2382 120.036H3.48205L27.1652 72.4141H50.8483Z" fill="white"/>
</svg>
