<svg width="106" height="90" viewBox="0 0 106 90" fill="none" xmlns="http://www.w3.org/2000/svg">
<path d="M84.4133 20.5775L78.2438 0L72.0742 20.5775H52.8545L68.5451 31.9209L62.5786 51.4439L78.2438 39.3803L93.9343 51.4439L87.9678 31.9209L103.633 20.5775H84.4133Z" fill="white"/>
<path d="M19.3791 84.8958V89.5981H4.00674V84.8958H19.3791ZM5.9506 60.3394V89.5981H0V60.3394H5.9506ZM17.3757 72.2559V76.8376H4.00674V72.2559H17.3757ZM19.3593 60.3394V65.0618H4.00674V60.3394H19.3593Z" fill="white"/>
<path d="M39.5913 79.8921H45.5221C45.4031 81.8614 44.8675 83.6097 43.9154 85.1369C42.9765 86.6642 41.6608 87.8565 39.9682 88.7139C38.2888 89.5713 36.2656 90 33.8986 90C32.0473 90 30.3877 89.6785 28.9199 89.0354C27.4521 88.379 26.1959 87.4412 25.1512 86.2221C24.1198 85.003 23.333 83.5293 22.7908 81.8011C22.2486 80.0729 21.9775 78.1371 21.9775 75.9936V73.964C21.9775 71.8205 22.2552 69.8846 22.8106 68.1565C23.3792 66.4149 24.1859 64.9345 25.2305 63.7154C26.2884 62.4963 27.5513 61.5585 29.0191 60.9021C30.4869 60.2456 32.1266 59.9174 33.9382 59.9174C36.3449 59.9174 38.3748 60.3595 40.0277 61.2437C41.6939 62.1279 42.9832 63.347 43.8956 64.901C44.8212 66.4551 45.3766 68.2234 45.5618 70.2062H39.6112C39.545 69.0272 39.3136 68.0292 38.9169 67.212C38.5202 66.3814 37.9185 65.7584 37.1119 65.3431C36.3185 64.9144 35.2606 64.7001 33.9382 64.7001C32.9465 64.7001 32.0803 64.8876 31.3398 65.2627C30.5993 65.6378 29.9778 66.2072 29.4753 66.9708C28.9728 67.7345 28.5959 68.699 28.3447 69.8645C28.1067 71.0167 27.9876 72.3698 27.9876 73.9238V75.9936C27.9876 77.5074 28.1 78.8404 28.3249 79.9926C28.5497 81.1313 28.8935 82.0959 29.3563 82.8863C29.8323 83.6633 30.4406 84.2528 31.1811 84.6547C31.9349 85.0432 32.8407 85.2374 33.8986 85.2374C35.1416 85.2374 36.1664 85.0365 36.9731 84.6346C37.7797 84.2327 38.3946 83.6365 38.8177 82.8461C39.2541 82.0557 39.512 81.071 39.5913 79.8921Z" fill="white"/>
<path d="M61.7474 60.3394V89.5981H55.8166V60.3394H61.7474ZM70.6336 60.3394V65.0618H47.0692V60.3394H70.6336Z" fill="white"/>
<path d="M78.1909 71.01H84.9349C87.2093 71.01 89.1664 71.3918 90.8061 72.1554C92.4459 72.919 93.7087 73.9908 94.5947 75.3707C95.4807 76.7505 95.9237 78.3581 95.9237 80.1935C95.9237 81.5868 95.6724 82.8595 95.1699 84.0116C94.6674 85.1503 93.9335 86.1417 92.9682 86.9857C92.0161 87.8163 90.8656 88.4594 89.5168 88.9149C88.168 89.3703 86.6407 89.5981 84.9349 89.5981H74.3031V60.3394H80.2736V84.8958H84.9349C86.0721 84.8958 87.011 84.6815 87.7515 84.2528C88.492 83.8241 89.0474 83.2547 89.4177 82.5447C89.8011 81.8212 89.9929 81.0241 89.9929 80.1533C89.9929 79.3227 89.8011 78.5725 89.4177 77.9027C89.0474 77.2194 88.492 76.6835 87.7515 76.295C87.011 75.9065 86.0721 75.7123 84.9349 75.7123H78.1909V71.01Z" fill="white"/>
<path d="M105.821 60.3394L105.167 80.6557H100.406L99.732 60.3394H105.821ZM99.5734 86.9455C99.5734 86.0881 99.8643 85.3781 100.446 84.8154C101.041 84.2394 101.821 83.9513 102.787 83.9513C103.765 83.9513 104.545 84.2394 105.127 84.8154C105.709 85.3781 106 86.0881 106 86.9455C106 87.7761 105.709 88.4795 105.127 89.0555C104.545 89.6316 103.765 89.9196 102.787 89.9196C101.821 89.9196 101.041 89.6316 100.446 89.0555C99.8643 88.4795 99.5734 87.7761 99.5734 86.9455Z" fill="white"/>
<path d="M30.5167 34.8339H18.2435L15.1133 33.5151C11.5801 32.3848 8.87342 30.6892 6.99319 28.4285C5.13363 26.1678 4.20385 23.2896 4.20385 19.7938C4.20385 16.7167 4.87536 14.142 6.21838 12.0697C7.58205 9.97646 9.5036 8.39605 11.983 7.32849C14.4831 6.26093 17.4481 5.72715 20.8779 5.72715H36.6222V51.4439H27.2934V13.1059H20.8779C18.3365 13.1059 16.4666 13.7443 15.2682 15.0212C14.0699 16.2981 13.4707 18.1088 13.4707 20.4532C13.4707 22.1697 13.7496 23.5826 14.3075 24.6921C14.8653 25.7805 15.6815 26.5969 16.7559 27.1412C17.8303 27.6645 19.1837 27.9261 20.8159 27.9261H30.4857L30.5167 34.8339ZM21.5598 31.0346L11.5491 51.4439H1.47649L11.5181 31.0346H21.5598Z" fill="white"/>
</svg>
